<?xml version="1.0" encoding="UTF-8" standalone="no"?>
<!-- Created with Inkscape (http://www.inkscape.org/) -->

<svg
   width="210mm"
   height="297mm"
   viewBox="0 0 210 297"
   version="1.1"
   id="svg5"
   inkscape:version="1.1 (c68e22c387, 2021-05-23)"
   sodipodi:docname="28time.svg"
   xmlns:inkscape="http://www.inkscape.org/namespaces/inkscape"
   xmlns:sodipodi="http://sodipodi.sourceforge.net/DTD/sodipodi-0.dtd"
   xmlns="http://www.w3.org/2000/svg"
   xmlns:svg="http://www.w3.org/2000/svg">
  <sodipodi:namedview
     id="namedview7"
     pagecolor="#505050"
     bordercolor="#eeeeee"
     borderopacity="1"
     inkscape:pageshadow="0"
     inkscape:pageopacity="0"
     inkscape:pagecheckerboard="0"
     inkscape:document-units="mm"
     showgrid="false"
     inkscape:zoom="0.38217593"
     inkscape:cx="266.89279"
     inkscape:cy="508.92792"
     inkscape:window-width="1920"
     inkscape:window-height="1017"
     inkscape:window-x="-8"
     inkscape:window-y="-8"
     inkscape:window-maximized="1"
     inkscape:current-layer="layer1" />
  <defs
     id="defs2" />
  <g
     inkscape:label="Vrstva 1"
     inkscape:groupmode="layer"
     id="layer1">
    <path
       style="fill:#000000;stroke-width:1.94917"
       d="m 85.317525,285.22439 c -20.355087,-7.20807 -28.436507,-16.38871 -28.227948,-32.06732 0.07882,-5.94184 1.552957,-12.02834 3.776235,-15.59345 10.137395,-16.25587 10.120672,-16.1548 4.30953,-26.04003 -4.327432,-7.36121 -5.290884,-11.31198 -5.175516,-21.22175 0.122291,-10.52414 0.93914,-13.16181 6.01771,-19.43656 3.231742,-3.99297 10.184985,-9.47761 15.45163,-12.18805 8.164299,-4.20183 17.853721,-5.95965 27.118324,-6.10622 8.70274,-0.13767 13.93521,0.65447 25.64237,4.92725 11.70715,4.27278 25.04468,31.73016 12.01495,50.2762 -3.50124,4.98354 -3.52991,5.58734 -0.4855,10.23317 7.35002,7.32437 12.33111,15.81006 12.53255,26.07746 0,30.60875 -39.62649,52.94826 -72.974039,41.1393 z m 24.440945,-6.02257 c 26.21736,-8.77797 27.86234,-31.65095 3.11358,-43.29333 -17.109194,-8.04855 -26.016378,-10.08996 -31.415993,-7.20017 -7.55012,4.04063 -11.574988,13.58114 -10.49057,24.8666 1.217245,12.66795 7.10758,20.87483 17.665263,24.61262 10.324354,3.6551 12.87452,3.77748 21.12772,1.01428 z m 28.16614,-80.55915 c 3.79481,-9.08236 3.55611,-15.36934 -0.91194,-24.01765 -4.47353,-8.65877 -9.0681,-11.70141 -21.05003,-13.93986 -10.12958,-1.89244 -23.735412,1.22815 -29.975019,6.87492 -6.122018,5.54034 -4.89888,15.31587 2.620807,20.94482 12.133102,9.08244 29.467352,16.29612 40.057592,16.67013 5.58748,0.19743 6.80591,-0.66229 9.25859,-6.53236 z M 55.708123,130.36085 C 58.003229,110.83264 66.82024,100.34879 99.533346,78.250159 122.84752,62.500825 129.88039,47.578288 122.4019,29.726939 116.2725,15.095841 102.69606,9.2007164 90.21627,15.751427 c -11.807415,6.197685 -12.050379,9.12672 -1.588834,19.151251 9.629655,9.227499 10.989155,13.607974 7.264051,23.4059 C 92.835516,66.346457 86.217102,70.77106 77.1407,70.844067 67.622621,71.452085 64.325094,64.910986 61.385703,59.045126 57.162804,50.617887 55.584505,39.819321 61.355789,30.766861 68.663898,19.304004 78.192249,12.195427 89.539483,8.1603214 101.85979,3.7791905 116.19417,4.2807583 128.76672,7.8745253 c 9.42028,2.6927137 20.61825,9.4438567 24.83857,15.7155067 4.83598,7.186554 7.42937,20.916747 5.49355,29.084064 -2.83356,11.954605 -9.43783,17.508048 -30.51304,25.65798 -10.99903,4.253395 -23.18746,8.848988 -27.08534,10.212316 -3.897845,1.363405 -9.160594,4.073645 -11.695049,6.022798 l -4.608041,3.543878 8.849056,0.04425 c 4.866986,0.02212 14.076814,1.464693 20.466334,3.201822 17.80994,4.84217 19.951,5.17067 25.16763,3.8614 2.66802,-0.66965 6.96082,-3.4929 9.53956,-6.273849 6.47902,-6.987346 8.21652,-3.055957 4.22444,9.558349 -6.25441,19.76262 -18.36276,32.13612 -31.74008,32.43507 -3.71471,0.0832 -13.09486,-3.1261 -22.478752,-7.69031 -18.970546,-9.2272 -25.368759,-8.99381 -35.356012,1.28974 -3.494963,3.5987 -7.044517,6.54305 -7.887815,6.54305 -0.843371,0 -0.966472,-4.82338 -0.273314,-10.7185 z"
       id="path836"
       sodipodi:nodetypes="cccccscazscccccssscccccsccccccccscacaascscscccscccccscc" />
  </g>
</svg>
