<?xml version="1.0" encoding="UTF-8" standalone="no"?>
<!-- Created with Inkscape (http://www.inkscape.org/) -->

<svg
   width="210mm"
   height="297mm"
   viewBox="0 0 210 297"
   version="1.1"
   id="svg1320"
   inkscape:version="1.1 (c68e22c387, 2021-05-23)"
   sodipodi:docname="44time.svg"
   xmlns:inkscape="http://www.inkscape.org/namespaces/inkscape"
   xmlns:sodipodi="http://sodipodi.sourceforge.net/DTD/sodipodi-0.dtd"
   xmlns="http://www.w3.org/2000/svg"
   xmlns:svg="http://www.w3.org/2000/svg">
  <sodipodi:namedview
     id="namedview1322"
     pagecolor="#505050"
     bordercolor="#eeeeee"
     borderopacity="1"
     inkscape:pageshadow="0"
     inkscape:pageopacity="0"
     inkscape:pagecheckerboard="0"
     inkscape:document-units="mm"
     showgrid="false"
     inkscape:zoom="0.54047838"
     inkscape:cx="222.02553"
     inkscape:cy="524.53532"
     inkscape:window-width="1920"
     inkscape:window-height="1017"
     inkscape:window-x="1912"
     inkscape:window-y="-2"
     inkscape:window-maximized="1"
     inkscape:current-layer="layer1" />
  <defs
     id="defs1317" />
  <g
     inkscape:label="Vrstva 1"
     inkscape:groupmode="layer"
     id="layer1">
    <path
       style="fill:#000000;stroke-width:1.89275"
       d="m 97.625306,288.55522 c -6.279046,-0.89178 -5.333824,-6.67686 1.513225,-9.26136 5.690869,-2.14805 5.764049,-2.34665 5.205129,-14.13743 l -0.56657,-11.95882 -25.530465,-0.94637 C 48.702989,251.15608 47.642233,250.35171 57.276168,236.34927 72.162445,214.87648 83.620654,188.5131 88.45279,165.18435 l 2.075008,-10.41018 22.239882,-0.53296 c 17.10903,-0.40991 22.23532,0.0286 22.22,1.89281 -0.0357,4.56379 -15.82091,24.16224 -53.45048,66.36977 -9.108923,10.21704 -16.561682,19.41631 -16.561682,20.44288 0,1.1403 7.547046,1.65651 19.400782,1.32687 l 19.40079,-0.5394 0.94637,-16.21036 c 1.04501,-17.90014 1.16856,-18.127 21.48217,-39.44733 l 9.74839,-10.23149 1.06004,32.94459 c 0.58303,18.11955 1.22185,33.11085 1.41957,33.31408 0.19745,0.20317 4.39762,0.62882 9.33306,0.94637 6.76157,0.43494 9.12867,1.39348 9.60261,3.88927 0.53151,2.79725 -0.84444,3.31233 -8.84603,3.31233 -11.07091,0 -12.79595,2.61476 -10.74556,16.28769 1.01047,6.73846 2.34357,8.90776 6.93226,11.28065 10.36734,5.36115 5.70596,7.38667 -19.31801,8.39405 -12.92917,0.52079 -25.424014,0.67388 -27.76637,0.34195 z m 0,-147.63519 c -6.279046,-0.89178 -5.333824,-6.67687 1.513225,-9.26137 5.690869,-2.14804 5.764049,-2.34664 5.205129,-14.13743 l -0.56657,-11.95882 -25.530465,-0.94637 C 48.702989,103.52088 47.642233,102.71652 57.276168,88.714082 71.045175,66.314742 83.454047,40.822051 88.45279,17.549166 L 90.527798,7.1389789 112.76768,6.6060247 c 17.10903,-0.4106242 22.23532,0.028614 22.22,1.8927359 C 134.95199,13.062558 119.16677,32.660999 81.5372,74.86854 72.428277,85.085567 64.975518,94.284917 64.975518,95.311404 c 0,1.140304 7.547046,1.656523 19.400782,1.326942 l 19.40079,-0.539393 0.94637,-16.210353 c 1.04501,-17.900151 1.16856,-18.126994 21.48217,-39.447341 l 9.74839,-10.231486 1.06004,32.944592 c 0.58303,18.119553 1.22185,33.110921 1.41957,33.314085 0.19745,0.203165 4.39762,0.628809 9.33306,0.946439 6.76157,0.434942 9.12867,1.393395 9.60261,3.889201 0.53151,2.79724 -0.84444,3.31232 -8.84603,3.31232 -11.07091,0 -12.79595,2.61476 -10.74556,16.28769 1.01047,6.73845 2.34357,8.90776 6.93226,11.28065 10.36734,5.36114 5.70596,7.38666 -19.31801,8.39404 -12.92917,0.5208 -25.424014,0.6746 -27.76637,0.34196 z"
       id="path45210"
       sodipodi:nodetypes="csscscccscssscsscssscsssscccsccscccccssscsscssscsssccc" />
  </g>
</svg>
