<?xml version="1.0" encoding="UTF-8" standalone="no"?>
<!-- Created with Inkscape (http://www.inkscape.org/) -->

<svg
   width="210mm"
   height="297mm"
   viewBox="0 0 210 297"
   version="1.1"
   id="svg47460"
   inkscape:version="1.1 (c68e22c387, 2021-05-23)"
   sodipodi:docname="64time.svg"
   xmlns:inkscape="http://www.inkscape.org/namespaces/inkscape"
   xmlns:sodipodi="http://sodipodi.sourceforge.net/DTD/sodipodi-0.dtd"
   xmlns="http://www.w3.org/2000/svg"
   xmlns:svg="http://www.w3.org/2000/svg">
  <sodipodi:namedview
     id="namedview47462"
     pagecolor="#505050"
     bordercolor="#eeeeee"
     borderopacity="1"
     inkscape:pageshadow="0"
     inkscape:pageopacity="0"
     inkscape:pagecheckerboard="0"
     inkscape:document-units="mm"
     showgrid="false"
     inkscape:zoom="0.27023919"
     inkscape:cx="595.76851"
     inkscape:cy="756.73703"
     inkscape:window-width="1920"
     inkscape:window-height="1017"
     inkscape:window-x="1912"
     inkscape:window-y="-2"
     inkscape:window-maximized="1"
     inkscape:current-layer="layer1" />
  <defs
     id="defs47457" />
  <g
     inkscape:label="Vrstva 1"
     inkscape:groupmode="layer"
     id="layer1">
    <path
       style="fill:#000000;stroke-width:1.98233"
       d="m 96.756154,285.85038 c 0,-3.48713 1.232026,-4.99284 4.460296,-5.45137 4.10298,-0.5829 4.46021,-1.66545 4.46021,-13.51859 V 253.99533 L 82.178019,253.4349 c -16.853232,-0.40158 -25.035756,-0.43142 -26.265829,-3.32747 -1.230073,-2.89605 0.789156,-5.84626 2.649411,-10.47537 0.730496,-1.90318 4.712706,-7.92449 8.849704,-13.38072 12.632233,-21.45414 20.111524,-44.4649 26.103624,-66.91229 l 1.334146,-5.45137 H 115.6257 c 16.09285,0 19.82908,0.0413 19.82908,0.0413 -11.59615,21.29486 -31.77521,47.83038 -49.947651,66.43777 -12.385001,12.61696 -18.019927,22.26827 -13.920089,23.84157 1.497403,0.57464 9.780018,0.7815 18.405853,0.46001 l 15.683397,-0.5844 1.98237,-17.24957 c 1.58237,-13.76963 -0.36715,0.36715 1.91432,-14.9009 3.38316,-4.28727 27.33594,-27.59025 32.26741,-31.93926 0,0 0.51938,13.34222 0.30702,26.42557 -0.41236,25.40528 -0.3724,33.79087 -0.0373,37.6368 2.70656,0.82746 4.68978,1.01852 8.1686,1.01852 6.52545,0 7.92928,0.68105 7.92928,3.84503 0,3.01219 -1.61009,3.97824 -7.43373,4.46022 l -7.43368,0.61511 -0.59414,12.54931 c -0.5327,11.24505 -0.17232,12.65974 3.46906,13.61193 2.66247,0.69603 4.06336,2.69144 4.06336,5.78717 v 4.72461 H 123.51744 96.756004 Z M 61.733822,108.78991 c -1.392066,-7.4699 -3.632995,-14.888543 -3.632995,-33.268165 0,-16.113094 1.933701,-26.084178 4.807733,-34.362233 2.354259,-6.780955 4.816054,-12.42588 11.77034,-19.380167 8.711246,-8.711248 13.525442,-10.106093 21.179906,-12.6322565 14.577074,-2.2398827 32.900414,-1.4718298 44.042344,6.8211005 7.90171,5.92206 15.72147,20.590366 7.14575,30.796848 -4.21381,5.015113 -7.80786,5.300701 -12.95428,5.544718 -7.11332,0.337277 -14.60892,-1.93353 -17.04257,-10.875165 -0.71251,-2.617718 -0.028,-8.722106 1.2217,-10.723288 1.2497,-2.001182 3.69653,-6.805633 2.27232,-9.864681 -1.619,-3.477433 -3.06253,-5.931801 -10.24439,-5.241732 -11.733847,1.12751 -16.039561,9.56843 -19.064078,16.913793 -3.285502,7.979192 -5.223284,16.332206 -4.908825,24.730718 0.108286,7.115082 0.648834,13.926236 5.797181,12.27008 4.71841,-1.51785 25.349112,-5.639731 37.674702,-3.904301 6.6183,0.931813 11.92476,3.33518 17.17414,7.778388 5.67235,6.496308 7.62659,6.868899 8.6809,22.250051 0.31413,18.649362 -7.3914,32.028072 -23.07009,40.898882 -17.09931,5.89958 -34.724175,6.09235 -49.527286,-1.22788 C 72.88755,130.28611 66.809866,121.20368 61.733822,108.78991 Z m 45.635568,23.28265 c 4.7189,-0.0676 10.00227,-2.49743 12.61505,-6.42756 5.8462,-8.79382 5.91666,-17.74062 4.82659,-26.807548 C 123.32144,86.447529 116.42175,79.48582 107.33268,78.957844 92.68986,77.829575 88.008022,90.564525 87.847802,102.26124 c -0.117285,9.81745 0.449902,17.97736 3.625242,22.277 3.483524,4.71694 10.033126,7.61824 15.896346,7.53432 z"
       id="path47533"
       sodipodi:nodetypes="ccscczccccsssccscccscscssccccscccccsssccssccacscsccccccasscc" />
  </g>
</svg>
