<?xml version="1.0" encoding="UTF-8" standalone="no"?>
<!-- Created with Inkscape (http://www.inkscape.org/) -->

<svg
   width="210mm"
   height="297mm"
   viewBox="0 0 210 297"
   version="1.1"
   id="svg7271"
   inkscape:version="1.1 (c68e22c387, 2021-05-23)"
   sodipodi:docname="68time.svg"
   xmlns:inkscape="http://www.inkscape.org/namespaces/inkscape"
   xmlns:sodipodi="http://sodipodi.sourceforge.net/DTD/sodipodi-0.dtd"
   xmlns="http://www.w3.org/2000/svg"
   xmlns:svg="http://www.w3.org/2000/svg">
  <sodipodi:namedview
     id="namedview7273"
     pagecolor="#505050"
     bordercolor="#eeeeee"
     borderopacity="1"
     inkscape:pageshadow="0"
     inkscape:pageopacity="0"
     inkscape:pagecheckerboard="0"
     inkscape:document-units="mm"
     showgrid="false"
     inkscape:zoom="0.76435185"
     inkscape:cx="348.00727"
     inkscape:cy="185.12417"
     inkscape:window-width="1920"
     inkscape:window-height="1017"
     inkscape:window-x="-8"
     inkscape:window-y="-8"
     inkscape:window-maximized="1"
     inkscape:current-layer="layer1" />
  <defs
     id="defs7268" />
  <g
     inkscape:label="Vrstva 1"
     inkscape:groupmode="layer"
     id="layer1">
    <path
       style="fill:#000000;stroke-width:1.98623"
       d="m 89.641959,286.34803 c -6.091224,-1.08289 -14.460199,-4.1589 -19.557186,-7.89039 -8.206046,-6.0076 -11.742794,-14.47656 -12.222488,-24.77907 0,-3.02635 0.534215,-10.25664 3.22505,-16.97287 1.877979,-6.86477 12.760123,-13.87442 8.312706,-18.95194 -8.306184,-10.52135 -8.155074,-22.15291 -7.535616,-32.06645 0.988458,-10.15387 4.545288,-17.58679 10.602601,-22.09159 10.363124,-7.70699 25.087184,-10.91372 37.082924,-10.57397 22.40839,-0.028 40.19556,12.10711 40.44969,35.3139 -0.03,5.98938 -1.69737,13.28898 -4.20891,18.39114 l -4.16437,8.45993 5.92034,5.92041 c 3.25626,3.25618 6.76614,8.83411 7.79979,12.39544 1.47792,7.47504 1.50325,18.98101 -3.25276,29.17974 -12.84108,22.16499 -38.06606,27.21054 -62.451936,23.66572 z m 36.262171,-38.89352 c -3.79968,-8.0696 -13.06333,-13.98123 -28.317287,-18.07075 -13.089683,-3.55381 -21.825605,2.77265 -24.517344,10.81583 -1.960759,5.85894 -2.399748,13.88134 0.103969,20.48932 3.485706,9.19971 11.626773,16.40671 19.992681,17.86971 8.655331,0.19242 17.992671,0.61916 24.734031,-3.015 5.14853,-2.77549 8.8674,-6.57241 10.09562,-12.30502 0.94758,-4.42261 0.41274,-10.32042 -2.09167,-15.78409 z m 4.80008,-41.46184 c 3.22245,-0.86427 4.92204,-3.6804 6.70375,-11.10739 3.4695,-14.46241 -0.62158,-23.58623 -9.92748,-29.74436 -8.4735,-5.73051 -19.67663,-7.81094 -33.321072,-3.53195 -6.801517,4.25752 -11.330221,9.94685 -12.873438,13.99102 -0.364601,6.9205 2.081082,12.7906 7.829698,16.99138 6.695278,4.89255 17.244992,7.69139 23.367952,9.88952 14.70563,5.19996 13.08848,4.88828 18.22059,3.51178 z M 94.263057,140.56042 C 86.380749,136.22221 78.177578,130.73786 72.627535,124.50295 61.636812,112.156 58.526977,95.19222 57.860913,80.030985 57.24984,65.160427 58.847713,58.020718 62.65801,47.815196 68.734065,31.541057 76.278597,22.440701 91.177355,13.142125 101.9458,6.8253334 129.52793,7.7152158 136.93779,14.618528 c 8.83502,5.413092 12.54519,12.028688 12.79,21.097415 -2.06123,11.966307 -4.10869,12.699234 -14.8271,15.282998 -6.64319,-0.174137 -9.40702,-1.460112 -13.86725,-6.451978 -4.56681,-12.085178 11.17873,-17.856955 2.25051,-27.328709 -1.56064,-1.560617 -11.35841,-2.124464 -14.36527,-1.72015 -5.07898,0.682938 -10.943469,5.400765 -13.802068,9.255171 -4.196828,5.658814 -6.092881,11.031271 -9.110522,17.847324 -3.467043,8.29789 -1.06188,24.527154 2.036711,27.625676 1.533007,1.533071 6.427732,2.075174 12.785209,-1.305077 14.82703,-7.883643 34.57165,-5.771106 46.20319,4.943349 7.23962,6.668952 10.20811,15.87541 8.89731,27.594073 -3.0247,19.99589 -12.55545,29.8133 -28.30003,36.94997 -12.81716,5.75202 -22.92549,5.32774 -33.365423,2.15183 z m 26.662053,-12.69153 c 3.7789,-4.91765 6.56591,-15.19039 6.39568,-24.7289 -0.12609,-7.067253 -2.16356,-13.371472 -5.11538,-18.681385 -3.0526,-5.491192 -8.53809,-7.90719 -14.68738,-8.345009 -5.73344,-0.03249 -11.591099,5.060918 -14.282355,10.301341 -4.166722,8.113452 -4.057836,15.490153 -4.232197,21.430723 0,10.41509 6.429723,24.19878 11.554682,25.19833 8.6516,2.18489 13.98633,0.77049 20.36695,-5.1751 z"
       id="path7344"
       sodipodi:nodetypes="csccccsccsccccccccsscsscsscccscscscsccccccssccccccccsscsccc" />
  </g>
</svg>
