<?xml version="1.0" encoding="UTF-8" standalone="no"?>
<!-- Created with Inkscape (http://www.inkscape.org/) -->

<svg
   width="210mm"
   height="297mm"
   viewBox="0 0 210 297"
   version="1.1"
   id="svg942"
   inkscape:version="1.1 (c68e22c387, 2021-05-23)"
   sodipodi:docname="altoKlic.svg"
   xmlns:inkscape="http://www.inkscape.org/namespaces/inkscape"
   xmlns:sodipodi="http://sodipodi.sourceforge.net/DTD/sodipodi-0.dtd"
   xmlns="http://www.w3.org/2000/svg"
   xmlns:svg="http://www.w3.org/2000/svg">
  <sodipodi:namedview
     id="namedview944"
     pagecolor="#505050"
     bordercolor="#eeeeee"
     borderopacity="1"
     inkscape:pageshadow="0"
     inkscape:pageopacity="0"
     inkscape:pagecheckerboard="0"
     inkscape:document-units="mm"
     showgrid="false"
     inkscape:zoom="0.38217593"
     inkscape:cx="732.64688"
     inkscape:cy="516.77771"
     inkscape:window-width="1920"
     inkscape:window-height="1017"
     inkscape:window-x="1912"
     inkscape:window-y="-2"
     inkscape:window-maximized="1"
     inkscape:current-layer="layer1" />
  <defs
     id="defs939" />
  <g
     inkscape:label="Vrstva 1"
     inkscape:groupmode="layer"
     id="layer1">
    <path
       style="fill:#000000;stroke-width:0.989186"
       d="M 48.023448,149.00714 V 65.915087 h 10.386507 10.386509 v 83.092053 83.09208 H 58.409955 48.023448 Z m 30.664921,0 V 65.915087 h 2.967574 2.967574 v 40.062243 c 0,39.72635 0.01752,40.06225 2.027507,40.06225 3.763293,0 7.451636,-2.78671 10.043835,-7.58846 3.038925,-5.62928 5.734101,-14.31411 5.734101,-18.47724 0,-2.91395 0.10048,-2.85833 7.17165,3.98928 10.42213,10.09197 15.14532,12.01622 21.46852,8.74629 8.2182,-4.24971 12.3733,-24.81102 8.62624,-42.686564 -2.35972,-11.257035 -6.27823,-14.342027 -18.96637,-14.931453 -13.06328,-0.606366 -16.76308,3.050877 -7.91801,7.827852 8.4275,4.551604 10.26961,8.953777 6.80334,16.258449 -2.5119,5.293386 -5.74925,7.294156 -11.80231,7.294156 -4.15485,0 -5.84393,-0.51523 -8.208705,-2.50527 -5.554749,-4.674038 -6.537938,-14.566575 -2.275825,-22.89868 3.12623,-6.111567 10.20624,-12.066108 15.69668,-13.201381 2.6055,-0.538604 5.96753,-1.251404 7.4712,-1.583446 7.82476,-1.72832 27.56736,7.063059 33.52943,14.930635 8.71699,11.50297 8.91564,29.997852 0.47692,44.397482 -3.67163,6.26519 -11.51074,12.96852 -16.94511,14.49006 -5.94623,1.66487 -17.2813,0.71968 -22.5339,-1.87928 -4.76827,-2.35911 -6.93005,-1.59957 -8.53287,2.99829 -2.24722,6.44642 -0.62296,18.97496 2.86979,22.13577 1.66212,1.50423 2.0799,1.38285 6.2841,-1.82634 5.89766,-4.50183 10.59022,-5.97043 16.97176,-5.31185 19.64321,2.02742 33.29188,26.86531 28.0904,51.11893 -3.14713,14.67465 -18.62507,24.81744 -37.80663,24.77515 -9.96086,-0.0235 -21.69031,-7.07522 -25.519206,-15.34516 -6.088667,-13.15091 4.476466,-27.46923 15.910356,-21.56223 4.42607,2.28655 7.93324,7.55422 7.93324,11.91551 0,3.52884 -2.73702,6.95464 -9.41257,11.78126 l -2.95231,2.13466 2.25566,2.31671 c 2.01203,2.06655 3.15283,2.31682 10.56215,2.31682 9.52451,0 12.61054,-1.51173 15.67928,-7.68065 4.35813,-8.7609 4.76464,-30.98673 0.75848,-41.47196 -2.58016,-6.7531 -7.65147,-11.68267 -12.0186,-11.68267 -6.0911,0 -14.5875,6.2936 -20.55441,15.22553 l -2.57187,3.84989 -1.2508,-6.17991 c -1.62171,-8.01256 -5.878742,-17.43414 -8.979402,-19.87315 -1.346051,-1.05852 -3.722762,-1.92508 -5.281556,-1.92508 h -2.834174 v 38.08379 38.0839 h -2.967573 -2.967573 z"
       id="path1015" />
  </g>
</svg>
