<?xml version="1.0" encoding="UTF-8" standalone="no"?>
<!-- Created with Inkscape (http://www.inkscape.org/) -->

<svg
   width="210mm"
   height="297mm"
   viewBox="0 0 210 297"
   version="1.1"
   id="svg1361"
   inkscape:version="1.1 (c68e22c387, 2021-05-23)"
   sodipodi:docname="basovyKlic.svg"
   xmlns:inkscape="http://www.inkscape.org/namespaces/inkscape"
   xmlns:sodipodi="http://sodipodi.sourceforge.net/DTD/sodipodi-0.dtd"
   xmlns="http://www.w3.org/2000/svg"
   xmlns:svg="http://www.w3.org/2000/svg">
  <sodipodi:namedview
     id="namedview1363"
     pagecolor="#505050"
     bordercolor="#eeeeee"
     borderopacity="1"
     inkscape:pageshadow="0"
     inkscape:pageopacity="0"
     inkscape:pagecheckerboard="0"
     inkscape:document-units="mm"
     showgrid="false"
     inkscape:zoom="0.27023919"
     inkscape:cx="-588.36766"
     inkscape:cy="912.1549"
     inkscape:window-width="1920"
     inkscape:window-height="1017"
     inkscape:window-x="1912"
     inkscape:window-y="-2"
     inkscape:window-maximized="1"
     inkscape:current-layer="layer1" />
  <defs
     id="defs1358" />
  <g
     inkscape:label="Vrstva 1"
     inkscape:groupmode="layer"
     id="layer1">
    <path
       style="fill:#000000;stroke-width:0.961956"
       d="m 52.121155,197.11894 c -0.960564,-1.06143 -1.568752,-2.09849 -1.351553,-2.30464 0.217055,-0.20614 3.641529,-1.6314 7.60962,-3.16728 17.067361,-6.60608 33.144158,-21.71588 43.812428,-41.17716 2.21491,-4.0549 4.58101,-9.23205 6.22654,-12.04873 2.07484,-4.11153 5.72365,-17.03486 6.4172,-27.6364 0.59721,-9.12834 -0.93235,-18.036586 -4.22,-24.577657 -2.06431,-4.107072 -8.31631,-10.12307 -12.21168,-11.750649 -9.347286,-3.905556 -22.212528,-2.304809 -29.688533,3.693955 -3.612623,2.898782 -9.374119,12.412865 -9.374119,15.479759 0,2.411001 1.767664,2.660659 4.548684,0.642434 3.080058,-2.235208 10.290364,-2.88589 13.413435,-1.210522 4.451899,2.388283 6.08682,5.789898 6.08682,12.66422 0,5.11748 -0.450249,7.12331 -2.164394,9.6419 -3.280936,4.82068 -6.551253,6.77125 -12.321548,7.34919 -4.745559,0.4753 -5.612612,0.24795 -9.287989,-2.43646 -4.821546,-3.5214 -6.757909,-6.96088 -8.386504,-14.89664 -3.984308,-19.414489 12.492498,-37.286031 35.766302,-38.793884 11.284051,-0.731039 17.359486,0.592953 28.933926,6.305476 4.84515,2.391304 12.38957,10.909453 15.51424,17.516555 3.66048,7.740024 5.26169,17.558683 4.49342,27.553653 -0.48156,6.26502 -1.44692,9.90645 -4.59456,17.33175 -2.19171,5.17014 -4.47627,10.04962 -5.07681,10.84322 -0.60056,0.7936 -2.11463,3.39092 -3.36464,5.77174 -2.96229,5.64221 -6.11383,9.88549 -12.0605,16.23852 -4.88924,5.22333 -19.129862,15.63359 -20.516077,16.46808 -0.557173,0.33541 -2.595119,1.46362 -5.037006,3.01531 -4.034587,2.92267 -14.740077,7.17746 -15.615859,7.50899 -0.875783,0.33151 -2.787201,0.87505 -5.912234,1.95021 -7.126574,2.45191 -9.437928,2.45689 -11.638718,0.0255 z M 152.65113,133.63558 c -2.59633,-2.59633 -2.69834,-10.54446 -0.1647,-12.83735 2.58414,-2.33862 9.03399,-2.09171 11.31863,0.43332 2.6819,2.96403 2.3736,10.21196 -0.53453,12.56684 -2.90806,2.3548 -8.18261,2.27395 -10.61937,-0.16288 z m -0.33194,-40.237472 c -2.50955,-2.772972 -2.09482,-9.368949 0.76914,-12.232894 5.17465,-5.174686 13.03016,-0.790484 13.03016,7.272188 0,0.90784 -0.8972,2.79122 -1.99375,4.185272 -1.59805,2.031569 -2.80941,2.534617 -6.10364,2.534617 -2.75994,0 -4.63282,-0.577836 -5.70191,-1.759183 z"
       id="path1434"
       sodipodi:nodetypes="ccsccsscssccssscscssscscssczscccscsccccscsc" />
  </g>
</svg>
