<?xml version="1.0" encoding="UTF-8" standalone="no"?>
<!-- Created with Inkscape (http://www.inkscape.org/) -->

<svg
   width="210mm"
   height="297mm"
   viewBox="0 0 210 297"
   version="1.1"
   id="svg46609"
   inkscape:version="1.1 (c68e22c387, 2021-05-23)"
   sodipodi:docname="24time.svg"
   xmlns:inkscape="http://www.inkscape.org/namespaces/inkscape"
   xmlns:sodipodi="http://sodipodi.sourceforge.net/DTD/sodipodi-0.dtd"
   xmlns="http://www.w3.org/2000/svg"
   xmlns:svg="http://www.w3.org/2000/svg">
  <sodipodi:namedview
     id="namedview46611"
     pagecolor="#505050"
     bordercolor="#eeeeee"
     borderopacity="1"
     inkscape:pageshadow="0"
     inkscape:pageopacity="0"
     inkscape:pagecheckerboard="0"
     inkscape:document-units="mm"
     showgrid="false"
     inkscape:zoom="0.54047838"
     inkscape:cx="138.76596"
     inkscape:cy="313.61107"
     inkscape:window-width="1920"
     inkscape:window-height="1017"
     inkscape:window-x="1912"
     inkscape:window-y="-2"
     inkscape:window-maximized="1"
     inkscape:current-layer="layer1" />
  <defs
     id="defs46606" />
  <g
     inkscape:label="Vrstva 1"
     inkscape:groupmode="layer"
     id="layer1">
    <path
       style="fill:#000000;stroke-width:1.97535"
       d="m 96.102896,291.87767 c -3.64494,-1.20866 -2.046336,-4.14725 3.940294,-7.24299 5.65462,-2.92412 5.92608,-3.64779 5.92608,-15.79626 v -12.7318 L 79.82016,255.55563 C 50.766318,254.94343 48.560861,253.74575 56.236862,242.75046 75.743347,214.80885 81.52045,202.89459 87.799591,177.65782 l 5.32985,-21.42131 20.569819,-0.56666 c 11.31341,-0.31133 21.39607,0.2598 22.40584,1.26942 1.13101,1.13102 0.96101,3.47076 -0.44273,6.09377 -2.58231,4.82508 -30.10865,38.10235 -47.48224,57.40251 -17.4146,19.34563 -21.712956,24.54006 -21.715606,26.24258 -0.0013,0.85283 9.000343,1.29728 20.00367,0.98766 l 20.006136,-0.56293 0.44572,-12.83982 c 0.79221,-22.83184 -1.60569,-17.96025 21.41758,-43.51096 12.12488,-13.45592 13.53079,-11.73151 12.92769,15.8559 -0.24936,11.40772 -0.29267,25.35937 -0.0962,31.00376 l 0.35686,10.26236 9.36526,0.60175 c 6.92651,0.44572 9.5304,1.47273 9.99979,3.94575 0.51291,2.70311 -1.18626,3.45986 -8.87131,3.95073 l -9.50599,0.60698 -0.58608,11.15791 c -0.55247,10.50948 -0.23143,11.41084 5.52905,15.51246 10.38182,7.39247 6.95861,8.74246 -22.35829,8.81719 -14.85495,0.0373 -27.902698,-0.2277 -28.994888,-0.5898 z M 111.89534,141.49638 c -2.7161,-0.83611 -10.38181,-4.30635 -17.034924,-7.71155 -6.653035,-3.40521 -14.030714,-6.19127 -16.394776,-6.19127 -5.838525,0 -15.079737,4.9974 -18.639527,10.07967 -4.568788,6.52283 -7.8625,2.74993 -6.469777,-7.41112 2.093266,-15.27201 11.952372,-29.24702 28.721206,-40.711621 4.992106,-3.412973 11.620042,-8.93906 14.966663,-11.675016 9.268755,-7.495392 20.935505,-12.957431 24.551695,-24.589446 2.85556,-10.284536 2.6999,-14.830015 -0.77863,-22.737699 -4.28372,-9.73818 -7.18092,-11.567719 -13.05925,-14.136697 -4.75293,-2.077146 -10.47954,-1.026044 -15.560956,0.01513 -3.62472,0.742702 -7.06961,2.398752 -10.209833,4.355588 -2.162261,1.347417 -5.789778,4.989653 -5.789778,4.989653 l 8.84109,8.117551 C 89.901101,38.35418 94.478236,44.392024 95.209822,47.30702 97.00672,54.46632 93.188421,62.912371 86.32104,66.969057 75.629932,73.284404 65.348285,70.111012 58.810068,58.477832 50.952324,44.496842 54.447818,31.868079 69.725541,19.041694 81.208277,9.4013181 90.890186,6.2426348 108.93234,6.2506984 c 13.52168,0.00591 17.51371,0.8517125 27.65499,5.8588836 18.07142,8.922603 25.59587,24.367586 20.71032,42.511055 -3.39565,12.610544 -12.69588,18.929779 -43.42689,29.507275 -7.06195,2.43068 -17.222553,6.760324 -22.57913,9.62134 l -9.739256,5.201963 15.728644,1.181625 c 8.650692,0.64954 17.837512,2.31026 20.415132,3.68974 2.57753,1.37947 9.11424,2.57492 14.52592,2.65652 8.38244,0.12617 10.53151,-0.65625 14.51354,-5.28558 5.77862,-6.718058 8.69063,-5.339326 6.71514,3.17944 -4.13813,17.84528 -15.27326,33.5677 -25.49643,36.00017 -2.85698,0.6794 -6.52782,1.55277 -8.15749,1.93995 -1.62973,0.38748 -5.18539,0.0224 -7.90149,-0.81632 z"
       id="path46682"
       sodipodi:nodetypes="csscssscccccssccsscccccccccccccsssccccaaacsccsccsssccccccccccc" />
  </g>
</svg>
