<?xml version="1.0" encoding="UTF-8" standalone="no"?>
<!-- Created with Inkscape (http://www.inkscape.org/) -->

<svg
   width="210mm"
   height="297mm"
   viewBox="0 0 210 297"
   version="1.1"
   id="svg45797"
   inkscape:version="1.1 (c68e22c387, 2021-05-23)"
   sodipodi:docname="34time.svg"
   xmlns:inkscape="http://www.inkscape.org/namespaces/inkscape"
   xmlns:sodipodi="http://sodipodi.sourceforge.net/DTD/sodipodi-0.dtd"
   xmlns="http://www.w3.org/2000/svg"
   xmlns:svg="http://www.w3.org/2000/svg">
  <sodipodi:namedview
     id="namedview45799"
     pagecolor="#505050"
     bordercolor="#eeeeee"
     borderopacity="1"
     inkscape:pageshadow="0"
     inkscape:pageopacity="0"
     inkscape:pagecheckerboard="0"
     inkscape:document-units="mm"
     showgrid="false"
     inkscape:zoom="0.54047838"
     inkscape:cx="123.96426"
     inkscape:cy="555.98894"
     inkscape:window-width="1920"
     inkscape:window-height="1017"
     inkscape:window-x="1912"
     inkscape:window-y="-2"
     inkscape:window-maximized="1"
     inkscape:current-layer="layer1" />
  <defs
     id="defs45794" />
  <g
     inkscape:label="Vrstva 1"
     inkscape:groupmode="layer"
     id="layer1">
    <path
       style="fill:#000000;stroke-width:1.91536"
       d="m 104.94627,290.60202 c -6.354136,-0.90245 -5.397546,-6.75656 1.5313,-9.37194 5.75886,-2.17371 5.83283,-2.37474 5.26724,-14.30638 l -0.57334,-12.10162 -25.835449,-0.95774 C 55.439456,252.75617 54.366034,251.94219 64.115046,237.77248 78.644178,214.785 90.746524,189.49864 95.66411,165.75735 l 2.099793,-10.53455 22.505557,-0.53931 c 17.3134,-0.4148 22.50101,0.029 22.48552,1.91535 -0.0361,4.6183 -16.00998,24.45094 -54.089074,67.16269 -9.217743,10.33909 -16.759528,19.64826 -16.759528,20.68701 0,1.15393 7.637271,1.67631 19.632546,1.34279 l 19.632546,-0.54582 0.95767,-16.40402 c 1.05758,-18.11397 1.1826,-18.3436 21.73879,-39.91857 l 9.86485,-10.3538 1.0727,33.33823 c 0.58999,18.33601 1.23646,33.5064 1.43655,33.71205 0.1998,0.20561 4.45014,0.63633 9.4446,0.95767 6.84228,0.44016 9.23765,1.41006 9.71725,3.93567 0.53787,2.83066 -0.85452,3.35189 -8.9517,3.35189 -11.20315,0 -12.94881,2.64607 -10.87392,16.48234 1.02254,6.81889 2.37164,9.01417 7.01507,11.41541 10.49118,5.42519 5.77413,7.47483 -19.54872,8.49433 -13.08368,0.52701 -25.7278,0.68193 -28.09805,0.34531 z M 84.561062,139.39192 C 60.197341,131.05287 49.186167,104.10186 65.163784,91.915119 c 7.57575,-5.778253 16.684894,-6.052251 24.163848,-0.726743 4.699832,3.346541 5.562962,5.270998 5.562962,12.403564 0,5.06598 -1.529284,10.95065 -3.82359,14.71374 -5.226773,8.57264 -4.897535,13.79268 1.040622,16.49833 6.431381,2.93034 9.509054,2.80483 16.211164,-0.66094 7.3965,-3.82482 15.17573,-17.47968 16.52295,-29.00245 C 126.64329,89.732575 118.43368,82.312111 96.829112,79.820379 89.08636,78.92735 86.153834,77.75308 85.695654,75.362269 85.235975,72.961973 87.222622,71.537879 93.323235,69.895157 114.76341,64.121902 122.88253,54.209342 120.48685,36.731188 118.92161,25.311215 113.10433,18.509695 102.9549,16.232905 87.485546,12.762581 82.81946,19.963471 92.89736,31.753802 c 11.41345,13.352837 4.729209,30.573575 -11.867136,30.573575 -6.132684,0 -8.889379,-1.297557 -14.343159,-6.751337 -6.369482,-6.369482 -6.697278,-7.314852 -5.794325,-16.711603 0.847932,-8.824946 1.928304,-10.838812 9.478715,-17.669577 9.442287,-8.542248 26.79963,-14.4132307 42.612205,-14.4132307 23.58832,0 44.11643,19.7322257 40.51269,38.9420007 -1.36531,7.277637 -10.31209,17.730019 -17.52268,20.471502 -7.44464,2.830455 0.15853,3.387296 3.92805,5.709127 3.76953,2.321815 9.78537,7.812898 13.51839,13.419719 3.36384,5.052443 4.67769,9.301281 4.67769,17.598412 0,14.74052 -6.84589,23.91546 -24.23016,32.47371 -15.70065,7.72944 -34.052947,9.21673 -49.306578,3.99582 z"
       id="path45870"
       sodipodi:nodetypes="ssscscccscssscsscssssssssssssssssssssssssssssssszssss" />
  </g>
</svg>
