<?xml version="1.0" encoding="UTF-8" standalone="no"?>
<!-- Created with Inkscape (http://www.inkscape.org/) -->

<svg
   width="210mm"
   height="297mm"
   viewBox="0 0 210 297"
   version="1.1"
   id="svg1998"
   inkscape:version="1.1 (c68e22c387, 2021-05-23)"
   sodipodi:docname="38time.svg"
   xmlns:inkscape="http://www.inkscape.org/namespaces/inkscape"
   xmlns:sodipodi="http://sodipodi.sourceforge.net/DTD/sodipodi-0.dtd"
   xmlns="http://www.w3.org/2000/svg"
   xmlns:svg="http://www.w3.org/2000/svg">
  <sodipodi:namedview
     id="namedview2000"
     pagecolor="#505050"
     bordercolor="#eeeeee"
     borderopacity="1"
     inkscape:pageshadow="0"
     inkscape:pageopacity="0"
     inkscape:pagecheckerboard="0"
     inkscape:document-units="mm"
     showgrid="false"
     inkscape:zoom="0.27023919"
     inkscape:cx="-1261.8451"
     inkscape:cy="197.97277"
     inkscape:window-width="1920"
     inkscape:window-height="1017"
     inkscape:window-x="-8"
     inkscape:window-y="-8"
     inkscape:window-maximized="1"
     inkscape:current-layer="layer1" />
  <defs
     id="defs1995" />
  <g
     inkscape:label="Vrstva 1"
     inkscape:groupmode="layer"
     id="layer1">
    <path
       style="fill:#000000;stroke-width:1.90213"
       d="M 88.982937,284.86128 C 75.650259,280.07836 67.733015,273.94171 63.048702,264.7597 c -3.654358,-7.16319 -3.799967,-8.72307 -1.627369,-17.43451 1.312348,-5.26209 3.818743,-11.27931 5.569771,-13.37164 1.751013,-2.09233 4.300019,-6.04742 5.664445,-8.78913 2.22891,-4.47869 1.955385,-5.77878 -2.694026,-12.80449 -10.013349,-15.13118 -8.101746,-34.80171 4.496124,-46.26549 21.815562,-19.8517 68.354683,-15.67353 79.164893,7.10731 4.67754,9.85709 3.75267,21.61131 -2.47277,31.42784 -5.99227,9.44884 -5.3254,14.6501 2.40894,18.78938 8.88081,4.75288 11.12086,21.58493 4.69256,35.26059 -10.74228,22.85309 -43.75936,35.33284 -69.268333,26.18172 z m 29.554733,-8.30509 c 10.77643,-4.63592 15.18494,-10.31583 15.18494,-19.56429 0,-12.15824 -12.57545,-22.55976 -33.71443,-27.8862 -8.365827,-2.10791 -10.723501,-2.08361 -14.903757,0.15385 -6.775085,3.6259 -10.349017,11.29686 -10.340525,22.1945 0.0093,12.01512 5.372773,20.66716 15.724701,25.36641 10.387451,4.71535 16.610501,4.65676 28.049071,-0.26384 z m 21.98377,-76.16314 c 6.24512,-12.07674 1.54221,-29.67147 -9.65198,-36.11071 -7.44952,-4.28522 -26.80531,-4.60478 -34.881278,-0.57584 -6.172048,3.07903 -11.720781,9.45147 -11.720781,13.4607 0,1.25623 2.179678,4.87445 4.843732,8.04047 4.205087,4.99745 10.484245,8.54723 33.198737,18.76794 9.05298,4.07358 14.84125,2.93489 18.21157,-3.58249 z M 91.15777,140.40854 C 71.388543,138.0802 53.759226,116.00893 59.534871,100.81787 65.29071,85.678857 83.959913,81.893057 93.241999,93.98266 c 3.591459,4.677748 2.871653,17.50063 -1.37321,24.46288 -4.672948,7.66432 -4.79714,11.61482 -0.468443,14.90082 9.415174,7.14714 23.161804,-0.0431 30.427844,-15.91326 8.00877,-17.49346 2.78478,-32.506591 -12.44797,-35.773833 -2.82725,-0.606757 -8.3872,-2.471041 -12.355322,-4.143592 -8.539125,-3.599236 -7.251417,-5.668843 6.715232,-10.79268 11.49325,-4.21643 16.9565,-11.636899 17.334,-23.544185 0.53056,-16.721768 -7.60229,-27.018397 -21.339712,-27.018397 -13.12856,0 -14.734237,4.36035 -5.9035,16.031324 7.248232,9.579518 7.461162,17.782527 0.638755,24.60494 -9.55968,9.559665 -27.493918,5.059778 -33.021732,-8.285545 -5.138537,-12.405561 9.56712,-30.783486 25.165552,-36.260312 4.112794,-1.444059 8.17361,-3.2468175 12.484834,-3.890037 19.255373,-2.8728341 43.055123,3.795428 51.231453,19.257231 3.51492,6.64678 4.22692,10.154569 3.2707,16.114003 -1.67571,10.443792 -5.05669,15.134118 -15.1907,21.072985 -9.8683,5.783229 -10.0816,8.694466 -0.77636,10.597566 3.83913,1.36258 9.20151,4.243311 13.6482,9.010352 6.47668,6.943402 6.99259,11.594187 7.16857,18.0726 0.17613,6.48365 -0.94637,11.62173 -6.18186,18.45004 -9.05032,11.80362 -22.69953,18.49087 -39.82598,19.51216 -7.64993,0.4565 -17.228057,0.43854 -21.284608,-0.0359 z"
       id="path2071"
       sodipodi:nodetypes="sssscssssscscsscssccsscsscsscssccccsscsssssscccccacccc" />
  </g>
</svg>
