<?xml version="1.0" encoding="UTF-8" standalone="no"?>
<!-- Created with Inkscape (http://www.inkscape.org/) -->

<svg
   width="210mm"
   height="297mm"
   viewBox="0 0 210 297"
   version="1.1"
   id="svg3433"
   inkscape:version="1.1 (c68e22c387, 2021-05-23)"
   sodipodi:docname="68time.svg"
   xmlns:inkscape="http://www.inkscape.org/namespaces/inkscape"
   xmlns:sodipodi="http://sodipodi.sourceforge.net/DTD/sodipodi-0.dtd"
   xmlns="http://www.w3.org/2000/svg"
   xmlns:svg="http://www.w3.org/2000/svg">
  <sodipodi:namedview
     id="namedview3435"
     pagecolor="#505050"
     bordercolor="#eeeeee"
     borderopacity="1"
     inkscape:pageshadow="0"
     inkscape:pageopacity="0"
     inkscape:pagecheckerboard="0"
     inkscape:document-units="mm"
     showgrid="false"
     inkscape:zoom="0.27023919"
     inkscape:cx="-984.3132"
     inkscape:cy="149.86723"
     inkscape:window-width="1920"
     inkscape:window-height="1017"
     inkscape:window-x="-8"
     inkscape:window-y="-8"
     inkscape:window-maximized="1"
     inkscape:current-layer="layer1" />
  <defs
     id="defs3430" />
  <g
     inkscape:label="Vrstva 1"
     inkscape:groupmode="layer"
     id="layer1">
    <path
       style="fill:#000000;stroke-width:1.91105"
       d="m 90.818016,287.55877 c -10.007884,-2.32147 -20.632787,-8.65955 -27.039817,-15.20143 -5.22192,-6.74243 -6.259817,-8.31781 -7.166477,-18.04054 0.658504,-4.63738 2.207597,-14.86632 6.717358,-21.13591 3.61826,-5.03019 10.215641,-13.17175 3.581539,-18.24075 -3.284487,-2.50961 -4.898766,-6.81172 -5.326011,-8.2208 -0.26872,-0.88625 -1.763732,-4.50796 -2.003485,-14.4358 5.013831,-31.21947 30.814766,-37.67257 52.271107,-37.70361 14.4058,-0.20156 29.36269,2.74874 37.82618,13.84944 11.04839,10.15601 8.00921,22.05564 3.7822,34.399 -0.58362,1.83938 -2.61852,5.76987 -4.52276,8.73435 -3.38753,5.27394 -3.37439,5.45922 0.61105,8.59979 2.24032,1.76535 4.9682,2.86441 7.32524,5.12781 10.78865,10.36011 7.48887,33.21881 -4.48482,44.64779 -12.55643,11.98519 -32.69262,19.28362 -48.00138,19.09911 -2.62768,-0.13435 -8.734271,-0.79965 -13.570141,-1.47845 z m 22.847584,-8.66841 c 5.68317,-1.51266 13.06243,-6.69238 16.03095,-9.91728 8.49084,-9.22412 5.6378,-22.45864 -0.55389,-28.49689 -11.72489,-6.96223 -27.79269,-15.3732 -42.09138,-12.32632 -5.770021,1.22952 -10.426387,6.4198 -13.482097,11.46633 -2.424575,4.00421 -3.768902,6.66962 -3.104324,13.69575 1.712729,14.34561 11.506388,23.16862 22.456893,26.19698 10.655428,2.16005 14.104088,1.14484 20.743848,-0.61857 z m -1.49593,-117.61685 c -10.41338,0.0145 -20.649445,3.47566 -25.940716,8.76693 -7.007898,8.99201 -4.226879,17.16436 3.225501,22.3377 12.554015,3.30315 25.324255,11.76815 36.990895,14.39639 18.29167,1.00387 23.81888,-16.84217 17.13729,-28.79619 -6.11939,-10.94818 -23.38987,-16.01981 -31.41297,-16.70483 z M 99.596569,140.21888 c -0.661616,-1.07022 1.345911,-2.4417 4.495601,-3.07168 6.51049,-1.30207 7.87533,-4.59983 7.91405,-19.12194 0.0288,-9.44812 -0.18491,-9.83636 -5.94596,-10.98855 -3.28461,-0.65655 -16.200803,-0.52222 -28.70224,-0.46015 0,0 -23.749387,-0.46052 -24.648365,-2.08053 -0.969519,-1.74713 0.355932,-3.82579 1.64394,-6.278103 5.244899,-9.986041 21.030457,-25.153068 26.216516,-35.948017 7.668207,-16.688385 13.11495,-32.627925 16.939336,-52.4289168 1.155517,-0.772199 12.205743,-1.417203 24.555943,-1.433309 18.69882,-0.02167 22.66504,0.315287 22.66504,0.315287 l -4.0323,7.9590348 c -21.03481,26.493112 -41.191931,50.112975 -66.870078,75.204407 -5.520815,5.355344 -6.180192,6.782734 -3.822135,8.273537 3.864677,2.44336 39.572243,2.37402 41.088763,-0.0794 0.65946,-1.066973 1.25354,-9.335867 1.32028,-18.375313 l 0.12134,-16.435392 14.88702,-15.068099 c 8.18779,-8.287468 15.81423,-15.06817 16.94749,-15.06817 1.38211,0 2.06915,9.595317 2.08662,29.143627 0.0362,37.569487 0.083,37.743347 10.70757,37.743347 4.60734,0 8.37689,0.85995 8.37689,1.91103 0,1.05107 -2.79489,1.92425 -6.21096,1.94029 -8.50662,0.0433 -10.93992,2.01257 -12.22098,9.90654 -1.32642,8.17399 3.61281,19.8183 9.00448,21.22828 2.03187,0.53161 3.6943,1.90656 3.6943,3.05601 0,2.76203 -58.50785,2.91407 -60.212161,0.15673 z"
       id="path3506"
       sodipodi:nodetypes="cccssscccccsssccccscaacccccccscccccsccccccccccsccscsscccscc" />
  </g>
</svg>
