<?xml version="1.0" encoding="UTF-8" standalone="no"?>
<!-- Created with Inkscape (http://www.inkscape.org/) -->

<svg
   width="210mm"
   height="297mm"
   viewBox="0 0 210 297"
   version="1.1"
   id="svg1116"
   sodipodi:docname="add_musicStaff.svg"
   inkscape:version="1.1 (c68e22c387, 2021-05-23)"
   xmlns:inkscape="http://www.inkscape.org/namespaces/inkscape"
   xmlns:sodipodi="http://sodipodi.sourceforge.net/DTD/sodipodi-0.dtd"
   xmlns="http://www.w3.org/2000/svg"
   xmlns:svg="http://www.w3.org/2000/svg">
  <sodipodi:namedview
     id="namedview1118"
     pagecolor="#505050"
     bordercolor="#eeeeee"
     borderopacity="1"
     inkscape:pageshadow="0"
     inkscape:pageopacity="0"
     inkscape:pagecheckerboard="0"
     inkscape:document-units="mm"
     showgrid="false"
     inkscape:zoom="1.5287037"
     inkscape:cx="414.73047"
     inkscape:cy="185.45124"
     inkscape:window-width="1920"
     inkscape:window-height="1017"
     inkscape:window-x="1912"
     inkscape:window-y="-2"
     inkscape:window-maximized="1"
     inkscape:current-layer="layer1" />
  <defs
     id="defs1113" />
  <g
     inkscape:label="Vrstva 1"
     inkscape:groupmode="layer"
     id="layer1">
    <path
       id="path4152"
       style="fill:#000000;stroke-width:2.98861"
       d="M 101.47852 116.5957 L 101.47852 122.57227 L 101.47852 128.55078 L 134.45703 128.55078 L 134.45703 188.32227 L 101.47852 188.32227 L 101.47852 194.29883 L 101.47852 200.27734 L 134.45703 200.27734 L 134.45703 260.04883 L 101.47852 260.04883 L 101.47852 266.02539 L 101.47852 272.00391 L 134.45703 272.00391 L 134.45703 331.77539 L 101.47852 331.77539 L 101.47852 337.75391 L 101.47852 343.73047 L 134.45703 343.73047 L 134.45703 403.50195 L 101.47852 403.50195 L 101.47852 409.48047 L 101.47852 415.45703 L 400.33984 415.45703 L 699.20117 415.45703 L 699.20117 409.48047 L 699.20117 403.50195 L 664.75586 403.50195 L 664.75586 343.73047 L 699.20117 343.73047 L 699.20117 337.75391 L 699.20117 331.77539 L 664.75586 331.77539 L 664.75586 272.00391 L 699.20117 272.00391 L 699.20117 266.02539 L 699.20117 260.04883 L 664.75586 260.04883 L 664.75586 200.27734 L 699.20117 200.27734 L 699.20117 194.29883 L 699.20117 188.32227 L 664.75586 188.32227 L 664.75586 128.55078 L 699.20117 128.55078 L 699.20117 122.57227 L 699.20117 116.5957 L 400.33984 116.5957 L 101.47852 116.5957 z M 149.12109 128.55078 L 400.33984 128.55078 L 650.0918 128.55078 L 650.0918 188.32227 L 422.58008 188.32227 L 422.58008 140.85938 L 382.02344 140.85938 L 382.02344 188.32227 L 149.12109 188.32227 L 149.12109 128.55078 z M 149.12109 200.27734 L 382.02344 200.27734 L 382.02344 245.87109 L 277.00977 245.87109 L 277.00977 260.04883 L 149.12109 260.04883 L 149.12109 200.27734 z M 422.58008 200.27734 L 650.0918 200.27734 L 650.0918 260.04883 L 527.5918 260.04883 L 527.5918 245.87109 L 422.58008 245.87109 L 422.58008 200.27734 z M 149.12109 272.00391 L 277.00977 272.00391 L 277.00977 286.42773 L 382.02344 286.42773 L 382.02344 331.77539 L 149.12109 331.77539 L 149.12109 272.00391 z M 527.5918 272.00391 L 650.0918 272.00391 L 650.0918 331.77539 L 422.58008 331.77539 L 422.58008 286.42773 L 527.5918 286.42773 L 527.5918 272.00391 z M 149.12109 343.73047 L 382.02344 343.73047 L 382.02344 391.44141 L 422.58008 391.44141 L 422.58008 343.73047 L 650.0918 343.73047 L 650.0918 403.50195 L 400.33984 403.50195 L 149.12109 403.50195 L 149.12109 343.73047 z "
       transform="scale(0.26458333)" />
  </g>
</svg>
