<?xml version="1.0" encoding="UTF-8" standalone="no"?>
<!-- Created with Inkscape (http://www.inkscape.org/) -->

<svg
   width="210mm"
   height="297mm"
   viewBox="0 0 210 297"
   version="1.1"
   id="svg5"
   inkscape:version="1.1 (c68e22c387, 2021-05-23)"
   sodipodi:docname="houslovyKlic.svg"
   xmlns:inkscape="http://www.inkscape.org/namespaces/inkscape"
   xmlns:sodipodi="http://sodipodi.sourceforge.net/DTD/sodipodi-0.dtd"
   xmlns="http://www.w3.org/2000/svg"
   xmlns:svg="http://www.w3.org/2000/svg">
  <sodipodi:namedview
     id="namedview7"
     pagecolor="#505050"
     bordercolor="#eeeeee"
     borderopacity="1"
     inkscape:pageshadow="0"
     inkscape:pageopacity="0"
     inkscape:pagecheckerboard="0"
     inkscape:document-units="mm"
     showgrid="false"
     inkscape:zoom="0.54047838"
     inkscape:cx="305.28511"
     inkscape:cy="757.66213"
     inkscape:window-width="1920"
     inkscape:window-height="1017"
     inkscape:window-x="-8"
     inkscape:window-y="-8"
     inkscape:window-maximized="1"
     inkscape:current-layer="layer1" />
  <defs
     id="defs2" />
  <g
     inkscape:label="Vrstva 1"
     inkscape:groupmode="layer"
     id="layer1">
    <path
       style="fill:#000000;stroke-width:1.07484"
       d="M 86.24331,294.95005 C 71.151544,291.15197 62.766269,273.19496 69.6812,259.48222 c 4.044524,-8.02051 15.582258,-12.0665 23.162492,-8.12249 6.093519,3.17043 10.963768,10.87867 10.963768,17.3525 0,8.2355 -5.151412,14.34486 -14.985863,17.77258 -4.836976,1.6859 -4.859719,1.71673 -2.284824,3.09478 1.430414,0.76551 5.553835,1.62895 9.163069,1.91867 12.028998,0.96555 26.507868,-6.81495 31.816778,-17.09737 3.44551,-6.67339 3.52706,-11.19279 0.44297,-24.55131 -1.56956,-6.79837 -3.10384,-13.93264 -3.40949,-15.85392 -0.62468,-3.92609 -1.61951,-4.18812 -7.1413,-1.88096 -5.35643,2.23802 -17.03988,2.01937 -26.9044,-0.50357 -16.717131,-4.27552 -34.592859,-16.35619 -41.242883,-27.87248 -1.570198,-2.71925 -2.90758,-3.50893 -3.771693,-5.58145 -2.653003,-6.36306 -4.023235,-14.59725 -4.023235,-20.28684 0,-7.48529 4.199868,-22.12817 8.689387,-30.29569 7.534286,-13.70674 19.112933,-27.42238 36.366995,-43.07902 l 9.049108,-8.211367 -1.94873,-10.352777 C 92.103729,77.858182 91.820413,72.814063 92.336708,63.022507 93.58447,39.35843 100.65195,19.147229 111.86511,7.1761954 c 6.75256,-7.20896834 5.76798,-7.74329615 14.40943,7.8202376 17.07146,30.746382 16.92018,57.812959 -0.46819,83.769933 -2.00507,2.993094 -7.58658,9.491224 -12.40331,14.440294 l -8.75777,8.99823 3.56176,15.99188 3.5617,15.99183 8.11137,0.003 c 7.39009,0.002 8.68473,0.3457 14.56039,3.85842 13.2964,7.94945 19.63031,17.4454 20.65055,30.95958 0.51673,6.84481 0.24781,8.3596 -2.59531,14.62795 -3.79996,8.37736 -13.29525,19.0266 -20.206,22.66165 -4.01286,2.11074 -4.79728,2.98976 -4.23058,4.7409 0.38268,1.18231 1.93229,9.27814 3.4437,17.99077 2.44345,14.08539 2.60047,16.50045 1.41668,21.79034 -2.23302,9.9781 -12.03092,20.06024 -22.47241,23.1243 -5.64597,1.65681 -19.352042,2.22579 -24.20381,1.0048 z m 32.20824,-68.29387 4.43304,-2.0654 -3.10952,-12.89812 c -1.71027,-7.09396 -3.78973,-16.76754 -4.62105,-21.49683 -1.94736,-11.07792 -3.47474,-17.74528 -4.24066,-18.51122 -0.7606,-0.7606 -8.67065,2.23294 -13.16172,4.98104 -1.852817,1.1337 -4.754913,3.88043 -6.449058,6.10388 -2.592089,3.40181 -3.047734,4.9454 -2.874716,9.73834 0.256744,7.11485 2.708355,12.39352 7.727165,16.63802 3.417046,2.88988 3.563493,3.19756 1.203373,2.52816 -6.166529,-1.7489 -13.147919,-6.48882 -16.184476,-10.98818 -2.601926,-3.85528 -3.162696,-5.79614 -3.162696,-10.94624 0,-13.28839 4.066657,-19.51048 20.959449,-32.06837 0.591154,-0.43947 2.525879,-1.30301 4.299349,-1.91901 3.09336,-1.07441 3.21061,-1.34638 2.88195,-6.6854 -0.18849,-3.06096 -1.39761,-9.94141 -2.68711,-15.28988 l -2.34448,-9.72444 -9.166284,7.38763 c -15.966642,12.86849 -27.676099,27.1427 -33.202056,40.47435 -2.165949,5.22547 -2.681304,8.30427 -2.700317,16.13162 -0.02031,9.23323 0.159653,9.99163 3.998782,16.66005 6.724162,11.67952 16.75861,19.18221 30.858822,23.07289 7.929492,2.18797 21.635233,1.62919 27.542213,-1.12289 z m 13.65513,-8.27377 c 6.77081,-6.77079 9.66555,-13.47063 9.60388,-22.22789 -0.0531,-7.55679 -3.15677,-15.73221 -7.44195,-19.60383 -4.90136,-4.42839 -17.44261,-7.96815 -19.04497,-5.37549 -0.29371,0.47518 0.69776,5.67472 2.20324,11.55455 1.50544,5.87983 3.13889,12.86716 3.62983,15.52739 2.59486,14.05968 4.21015,23.19689 4.22779,23.91525 0.0464,1.88434 2.52474,0.50748 6.82218,-3.78998 z M 126.15003,60.778235 c 4.61184,-9.203809 5.06594,-10.793547 5.06594,-17.734925 0,-6.549845 -0.47157,-8.458319 -3.3447,-13.536479 -3.99436,-7.060001 -7.3434,-8.076942 -13.34998,-4.053826 -10.51731,7.04432 -18.99706,39.661719 -16.421582,63.165695 l 0.647252,5.90717 11.16856,-11.81877 c 9.13319,-9.664973 12.09177,-13.661276 16.23451,-21.928865 z"
       id="path854"
       sodipodi:nodetypes="csssssssscsssasscccsscsccccccscscscsccscccssccscsssccccssccssscsssccssscscccs" />
  </g>
</svg>
