<?xml version="1.0" encoding="UTF-8" standalone="no"?>
<!-- Created with Inkscape (http://www.inkscape.org/) -->

<svg
   version="1.1"
   id="svg25"
   width="149"
   height="294"
   viewBox="0 0 149 294"
   sodipodi:docname="notaCela.svg"
   inkscape:version="1.2.2 (732a01da63, 2022-12-09, custom)"
   xmlns:inkscape="http://www.inkscape.org/namespaces/inkscape"
   xmlns:sodipodi="http://sodipodi.sourceforge.net/DTD/sodipodi-0.dtd"
   xmlns="http://www.w3.org/2000/svg"
   xmlns:svg="http://www.w3.org/2000/svg">
  <defs
     id="defs29" />
  <sodipodi:namedview
     id="namedview27"
     pagecolor="#505050"
     bordercolor="#eeeeee"
     borderopacity="1"
     inkscape:showpageshadow="0"
     inkscape:pageopacity="0"
     inkscape:pagecheckerboard="0"
     inkscape:deskcolor="#505050"
     showgrid="false"
     inkscape:zoom="3.292517"
     inkscape:cx="118.60227"
     inkscape:cy="85.952479"
     inkscape:window-width="1280"
     inkscape:window-height="692"
     inkscape:window-x="0"
     inkscape:window-y="0"
     inkscape:window-maximized="1"
     inkscape:current-layer="g31" />
  <g
     inkscape:groupmode="layer"
     inkscape:label="Image"
     id="g31">
    <path
       style="fill:#000000"
       d="m 56.333279,137.16835 c -11.215283,-2.1413 -17.510365,-4.51838 -24.612873,-9.29404 -8.843709,-5.94644 -11.796902,-11.18261 -12.336782,-21.8738 -0.643264,-12.738485 4.66732,-20.238715 19.095671,-26.969145 6.707992,-3.12909 10.838607,-4.19133 22.403863,-5.76142 20.304231,-2.75649 45.114152,2.87915 55.790032,12.67284 4.00179,2.953519 6.06811,6.485815 7.6552,9.77837 0.65874,1.375 1.24463,5.685495 1.30198,9.578875 0.18754,12.73315 -5.76007,20.66317 -20.39574,27.19387 -12.843787,5.73113 -33.183564,7.6754 -48.901351,4.67445 z m 27.901354,-5.21467 c 4.434194,-1.80973 7.001743,-5.58922 8.209751,-12.08495 2.305273,-12.39598 -2.141347,-27.142735 -10.510572,-34.857215 -6.037161,-5.56486 -8.226024,-6.56192 -14.120349,-6.43201 -6.374605,0.1405 -9.40746,1.44785 -12.57883,5.42229 -2.22482,2.78819 -2.536523,4.23852 -2.831811,13.17621 -0.4354,13.178575 1.773826,19.534045 9.666621,27.808815 7.281409,7.6338 14.766523,9.98649 22.16519,6.96686 z"
       id="path193"
       sodipodi:nodetypes="sssssccsssssssssss" />
  </g>
</svg>
