<?xml version="1.0" encoding="UTF-8" standalone="no"?>
<!-- Created with Inkscape (http://www.inkscape.org/) -->

<svg
   width="210mm"
   height="297mm"
   viewBox="0 0 210 297"
   version="1.1"
   id="svg1116"
   sodipodi:docname="removeMusicBar.svg"
   inkscape:version="1.1 (c68e22c387, 2021-05-23)"
   xmlns:inkscape="http://www.inkscape.org/namespaces/inkscape"
   xmlns:sodipodi="http://sodipodi.sourceforge.net/DTD/sodipodi-0.dtd"
   xmlns="http://www.w3.org/2000/svg"
   xmlns:svg="http://www.w3.org/2000/svg">
  <sodipodi:namedview
     id="namedview1118"
     pagecolor="#505050"
     bordercolor="#eeeeee"
     borderopacity="1"
     inkscape:pageshadow="0"
     inkscape:pageopacity="0"
     inkscape:pagecheckerboard="0"
     inkscape:document-units="mm"
     showgrid="false"
     inkscape:zoom="0.54047838"
     inkscape:cx="271.98128"
     inkscape:cy="95.285958"
     inkscape:window-width="1920"
     inkscape:window-height="1017"
     inkscape:window-x="1912"
     inkscape:window-y="-2"
     inkscape:window-maximized="1"
     inkscape:current-layer="layer1" />
  <defs
     id="defs1113" />
  <g
     inkscape:label="Vrstva 1"
     inkscape:groupmode="layer"
     id="layer1">
    <path
       id="path4152"
       style="fill:#000000;stroke-width:2.98861"
       d="M 244.83594 77.849609 L 208.05859 114.62695 L 214.13281 120.70117 L 101.47852 120.70117 L 101.47852 126.67773 L 101.47852 132.6543 L 134.45703 132.6543 L 134.45703 192.42773 L 101.47852 192.42773 L 101.47852 198.4043 L 101.47852 204.38086 L 134.45703 204.38086 L 134.45703 264.1543 L 101.47852 264.1543 L 101.47852 270.13086 L 101.47852 276.10742 L 134.45703 276.10742 L 134.45703 335.88086 L 101.47852 335.88086 L 101.47852 341.85742 L 101.47852 347.83594 L 134.45703 347.83594 L 134.45703 407.60742 L 101.47852 407.60742 L 101.47852 413.58398 L 101.47852 419.5625 L 214.13086 419.5625 L 208.05859 425.63477 L 244.83594 462.41211 L 287.68555 419.5625 L 400.33984 419.5625 L 512.99219 419.5625 L 555.8418 462.41211 L 592.62109 425.63477 L 586.54883 419.5625 L 699.20117 419.5625 L 699.20117 413.58398 L 699.20117 407.60742 L 664.75586 407.60742 L 664.75586 347.83594 L 699.20117 347.83594 L 699.20117 341.85742 L 699.20117 335.88086 L 664.75586 335.88086 L 664.75586 276.10742 L 699.20117 276.10742 L 699.20117 270.13086 L 699.20117 264.1543 L 664.75586 264.1543 L 664.75586 204.38086 L 699.20117 204.38086 L 699.20117 198.4043 L 699.20117 192.42773 L 664.75586 192.42773 L 664.75586 132.6543 L 699.20117 132.6543 L 699.20117 126.67773 L 699.20117 120.70117 L 586.54883 120.70117 L 592.62109 114.62891 L 555.8418 77.849609 L 512.99023 120.70117 L 400.33984 120.70117 L 287.6875 120.70117 L 244.83594 77.849609 z M 149.12109 132.6543 L 226.08594 132.6543 L 285.85938 192.42773 L 149.12109 192.42773 L 149.12109 132.6543 z M 299.64062 132.6543 L 400.33984 132.6543 L 501.03711 132.6543 L 441.26562 192.42773 L 400.33984 192.42773 L 359.41406 192.42773 L 299.64062 132.6543 z M 574.5957 132.6543 L 650.0918 132.6543 L 650.0918 192.42773 L 514.82031 192.42773 L 574.5957 132.6543 z M 149.12109 204.38086 L 297.8125 204.38086 L 357.58594 264.1543 L 149.12109 264.1543 L 149.12109 204.38086 z M 371.36719 204.38086 L 400.33984 204.38086 L 429.3125 204.38086 L 400.33984 233.35352 L 371.36719 204.38086 z M 502.86719 204.38086 L 650.0918 204.38086 L 650.0918 264.1543 L 443.09375 264.1543 L 502.86719 204.38086 z M 149.12109 276.10742 L 357.58594 276.10742 L 297.8125 335.88086 L 149.12109 335.88086 L 149.12109 276.10742 z M 443.09375 276.10742 L 650.0918 276.10742 L 650.0918 335.88086 L 502.86719 335.88086 L 443.09375 276.10742 z M 400.33984 306.9082 L 429.3125 335.88086 L 400.33984 335.88086 L 371.36719 335.88086 L 400.33984 306.9082 z M 149.12109 347.83594 L 285.85742 347.83594 L 226.08594 407.60742 L 149.12109 407.60742 L 149.12109 347.83594 z M 359.41211 347.83594 L 400.33984 347.83594 L 441.26758 347.83594 L 501.03711 407.60742 L 400.33984 407.60742 L 299.64062 407.60742 L 359.41211 347.83594 z M 514.82227 347.83594 L 650.0918 347.83594 L 650.0918 407.60742 L 574.59375 407.60742 L 514.82227 347.83594 z "
       transform="scale(0.26458333)" />
  </g>
</svg>
